<mxfile host="app.diagrams.net" modified="2020-12-21T10:55:26.916Z" agent="5.0 (Windows NT 10.0; Win64; x64) AppleWebKit/537.36 (KHTML, like Gecko) Chrome/86.0.4240.198 Safari/537.36" etag="OCZ4aI7OFAyz7PEqsR4A" version="14.1.1" type="github">
  <diagram id="zghKUV4cW027AKgbunaZ" name="第 1 页">
    <mxGraphModel dx="1238" dy="652" grid="1" gridSize="10" guides="1" tooltips="1" connect="1" arrows="1" fold="1" page="1" pageScale="1" pageWidth="850" pageHeight="1100" background="#F1FAEE" math="0" shadow="0">
      <root>
        <mxCell id="0" />
        <mxCell id="1" parent="0" />
        <mxCell id="F1iLutC6E6IiqcUPJ3Px-93" value="Alt" style="shape=umlFrame;whiteSpace=wrap;rounded=0;sketch=0;strokeColor=#457B9D;fillColor=#A8DADC;fontFamily=Comic Sans MS;fontColor=#1D3557;fontStyle=0;html=1;" parent="1" vertex="1">
          <mxGeometry x="940" y="610" width="670" height="400" as="geometry" />
        </mxCell>
        <mxCell id="F1iLutC6E6IiqcUPJ3Px-1" value="前端" style="shape=umlLifeline;perimeter=lifelinePerimeter;whiteSpace=wrap;html=1;container=1;collapsible=0;recursiveResize=0;outlineConnect=0;rounded=0;sketch=0;strokeColor=#457B9D;fillColor=#A8DADC;fontColor=#1D3557;" parent="1" vertex="1">
          <mxGeometry x="80" y="80" width="100" height="1360" as="geometry" />
        </mxCell>
        <mxCell id="F1iLutC6E6IiqcUPJ3Px-4" value="" style="html=1;points=[];perimeter=orthogonalPerimeter;rounded=0;sketch=0;strokeColor=#457B9D;fillColor=#A8DADC;fontFamily=Comic Sans MS;fontColor=#1D3557;" parent="F1iLutC6E6IiqcUPJ3Px-1" vertex="1">
          <mxGeometry x="45" y="90" width="10" height="380" as="geometry" />
        </mxCell>
        <mxCell id="vzTr1F74ae5glKlfCKuG-5" value="返回结果" style="html=1;verticalAlign=bottom;endArrow=open;dashed=1;endSize=8;strokeColor=#457B9D;fillColor=#A8DADC;fontColor=#1D3557;labelBackgroundColor=#F1FAEE;" edge="1" parent="F1iLutC6E6IiqcUPJ3Px-1">
          <mxGeometry relative="1" as="geometry">
            <mxPoint x="185" y="430" as="sourcePoint" />
            <mxPoint x="60" y="431" as="targetPoint" />
          </mxGeometry>
        </mxCell>
        <mxCell id="F1iLutC6E6IiqcUPJ3Px-3" value="IntelligentAuditAtom" style="shape=umlLifeline;perimeter=lifelinePerimeter;whiteSpace=wrap;html=1;container=1;collapsible=0;recursiveResize=0;outlineConnect=0;rounded=0;sketch=0;strokeColor=#457B9D;fillColor=#A8DADC;fontColor=#1D3557;fontFamily=Comic Sans MS;" parent="1" vertex="1">
          <mxGeometry x="200" y="80" width="140" height="1350" as="geometry" />
        </mxCell>
        <mxCell id="F1iLutC6E6IiqcUPJ3Px-13" value="" style="html=1;points=[];perimeter=orthogonalPerimeter;rounded=0;sketch=0;strokeColor=#457B9D;fillColor=#A8DADC;fontFamily=Comic Sans MS;fontColor=#1D3557;" parent="F1iLutC6E6IiqcUPJ3Px-3" vertex="1">
          <mxGeometry x="65" y="90" width="10" height="120" as="geometry" />
        </mxCell>
        <mxCell id="vzTr1F74ae5glKlfCKuG-3" value="" style="html=1;points=[];perimeter=orthogonalPerimeter;rounded=0;sketch=0;strokeColor=#457B9D;fillColor=#A8DADC;fontFamily=Comic Sans MS;fontColor=#1D3557;" vertex="1" parent="F1iLutC6E6IiqcUPJ3Px-3">
          <mxGeometry x="65" y="360" width="10" height="80" as="geometry" />
        </mxCell>
        <mxCell id="F1iLutC6E6IiqcUPJ3Px-6" value="dispatch" style="html=1;verticalAlign=bottom;endArrow=block;strokeColor=#457B9D;fillColor=#A8DADC;fontFamily=Comic Sans MS;fontColor=#1D3557;labelBackgroundColor=#F1FAEE;" parent="1" edge="1">
          <mxGeometry relative="1" as="geometry">
            <mxPoint x="140" y="180" as="sourcePoint" />
            <mxPoint x="260" y="180" as="targetPoint" />
          </mxGeometry>
        </mxCell>
        <mxCell id="F1iLutC6E6IiqcUPJ3Px-11" value="intelligentAudit" style="edgeStyle=orthogonalEdgeStyle;html=1;align=left;spacingLeft=2;endArrow=block;rounded=0;entryX=1;entryY=0;strokeColor=#457B9D;fillColor=#A8DADC;fontFamily=Comic Sans MS;fontColor=#1D3557;labelBackgroundColor=#F1FAEE;" parent="1" edge="1">
          <mxGeometry relative="1" as="geometry">
            <mxPoint x="280" y="180" as="sourcePoint" />
            <Array as="points">
              <mxPoint x="305" y="180" />
            </Array>
            <mxPoint x="285" y="200" as="targetPoint" />
          </mxGeometry>
        </mxCell>
        <mxCell id="F1iLutC6E6IiqcUPJ3Px-14" value="ObjectEventProducer" style="shape=umlLifeline;perimeter=lifelinePerimeter;whiteSpace=wrap;html=1;container=1;collapsible=0;recursiveResize=0;outlineConnect=0;rounded=0;sketch=0;strokeColor=#457B9D;fillColor=#A8DADC;fontColor=#1D3557;fontFamily=Comic Sans MS;" parent="1" vertex="1">
          <mxGeometry x="440" y="80" width="140" height="1350" as="geometry" />
        </mxCell>
        <mxCell id="F1iLutC6E6IiqcUPJ3Px-15" value="" style="html=1;points=[];perimeter=orthogonalPerimeter;rounded=0;sketch=0;strokeColor=#457B9D;fillColor=#A8DADC;fontFamily=Comic Sans MS;fontColor=#1D3557;" parent="F1iLutC6E6IiqcUPJ3Px-14" vertex="1">
          <mxGeometry x="65" y="140" width="10" height="120" as="geometry" />
        </mxCell>
        <mxCell id="F1iLutC6E6IiqcUPJ3Px-16" value="ObjectEventHandler" style="shape=umlLifeline;perimeter=lifelinePerimeter;whiteSpace=wrap;html=1;container=1;collapsible=0;recursiveResize=0;outlineConnect=0;rounded=0;sketch=0;strokeColor=#457B9D;fillColor=#A8DADC;fontColor=#1D3557;fontFamily=Comic Sans MS;" parent="1" vertex="1">
          <mxGeometry x="640" y="80" width="140" height="1320" as="geometry" />
        </mxCell>
        <mxCell id="F1iLutC6E6IiqcUPJ3Px-17" value="" style="html=1;points=[];perimeter=orthogonalPerimeter;rounded=0;sketch=0;strokeColor=#457B9D;fillColor=#A8DADC;fontFamily=Comic Sans MS;fontColor=#1D3557;" parent="F1iLutC6E6IiqcUPJ3Px-16" vertex="1">
          <mxGeometry x="65" y="190" width="10" height="130" as="geometry" />
        </mxCell>
        <mxCell id="F1iLutC6E6IiqcUPJ3Px-111" value="" style="html=1;points=[];perimeter=orthogonalPerimeter;rounded=0;sketch=0;strokeColor=#457B9D;fillColor=#A8DADC;fontFamily=Comic Sans MS;fontColor=#1D3557;" parent="F1iLutC6E6IiqcUPJ3Px-16" vertex="1">
          <mxGeometry x="65" y="1060" width="10" height="30" as="geometry" />
        </mxCell>
        <mxCell id="F1iLutC6E6IiqcUPJ3Px-18" value="RuleHandleUtil" style="shape=umlLifeline;perimeter=lifelinePerimeter;whiteSpace=wrap;html=1;container=1;collapsible=0;recursiveResize=0;outlineConnect=0;rounded=0;sketch=0;strokeColor=#457B9D;fillColor=#A8DADC;fontColor=#1D3557;fontFamily=Comic Sans MS;" parent="1" vertex="1">
          <mxGeometry x="840" y="80" width="140" height="1560" as="geometry" />
        </mxCell>
        <mxCell id="F1iLutC6E6IiqcUPJ3Px-19" value="" style="html=1;points=[];perimeter=orthogonalPerimeter;rounded=0;sketch=0;strokeColor=#457B9D;fillColor=#A8DADC;fontFamily=Comic Sans MS;fontColor=#1D3557;" parent="F1iLutC6E6IiqcUPJ3Px-18" vertex="1">
          <mxGeometry x="65" y="300" width="10" height="120" as="geometry" />
        </mxCell>
        <mxCell id="F1iLutC6E6IiqcUPJ3Px-106" value="" style="html=1;points=[];perimeter=orthogonalPerimeter;rounded=0;sketch=0;strokeColor=#457B9D;fillColor=#A8DADC;fontFamily=Comic Sans MS;fontColor=#1D3557;" parent="F1iLutC6E6IiqcUPJ3Px-18" vertex="1">
          <mxGeometry x="65" y="1040" width="10" height="40" as="geometry" />
        </mxCell>
        <mxCell id="F1iLutC6E6IiqcUPJ3Px-38" value="IntelligentAuditBiz" style="shape=umlLifeline;perimeter=lifelinePerimeter;whiteSpace=wrap;html=1;container=1;collapsible=0;recursiveResize=0;outlineConnect=0;strokeColor=#457B9D;fillColor=#A8DADC;fontFamily=Comic Sans MS;fontColor=#1D3557;" parent="1" vertex="1">
          <mxGeometry x="1037.5" y="80" width="140" height="1470" as="geometry" />
        </mxCell>
        <mxCell id="F1iLutC6E6IiqcUPJ3Px-62" value="" style="html=1;points=[];perimeter=orthogonalPerimeter;rounded=0;sketch=0;strokeColor=#457B9D;fillColor=#A8DADC;fontColor=#1D3557;" parent="F1iLutC6E6IiqcUPJ3Px-38" vertex="1">
          <mxGeometry x="65" y="360" width="10" height="160" as="geometry" />
        </mxCell>
        <mxCell id="F1iLutC6E6IiqcUPJ3Px-105" value="返回校验结果" style="html=1;verticalAlign=bottom;endArrow=open;dashed=1;endSize=8;strokeColor=#457B9D;fillColor=#A8DADC;fontColor=#1D3557;labelBackgroundColor=#F1FAEE;" parent="F1iLutC6E6IiqcUPJ3Px-38" edge="1">
          <mxGeometry relative="1" as="geometry">
            <mxPoint x="742.5" y="1019" as="sourcePoint" />
            <mxPoint x="75.00000000000023" y="1019" as="targetPoint" />
          </mxGeometry>
        </mxCell>
        <mxCell id="F1iLutC6E6IiqcUPJ3Px-107" value="更新详情日志，并返回结果" style="html=1;verticalAlign=bottom;endArrow=open;dashed=1;endSize=8;strokeColor=#457B9D;fillColor=#A8DADC;fontColor=#1D3557;labelBackgroundColor=#F1FAEE;" parent="F1iLutC6E6IiqcUPJ3Px-38" edge="1">
          <mxGeometry relative="1" as="geometry">
            <mxPoint x="52.5" y="1050" as="sourcePoint" />
            <mxPoint x="-117.5" y="1050" as="targetPoint" />
          </mxGeometry>
        </mxCell>
        <mxCell id="F1iLutC6E6IiqcUPJ3Px-40" value="三方厂商" style="shape=umlLifeline;perimeter=lifelinePerimeter;whiteSpace=wrap;html=1;container=1;collapsible=0;recursiveResize=0;outlineConnect=0;strokeColor=#457B9D;fillColor=#A8DADC;fontFamily=Comic Sans MS;fontColor=#1D3557;" parent="1" vertex="1">
          <mxGeometry x="1492.5" y="80" width="140" height="1360" as="geometry" />
        </mxCell>
        <mxCell id="F1iLutC6E6IiqcUPJ3Px-43" value="IntelligentRuleUtil" style="shape=umlLifeline;perimeter=lifelinePerimeter;whiteSpace=wrap;html=1;container=1;collapsible=0;recursiveResize=0;outlineConnect=0;strokeColor=#457B9D;fillColor=#A8DADC;fontFamily=Comic Sans MS;fontColor=#1D3557;" parent="1" vertex="1">
          <mxGeometry x="1262.5" y="80" width="140" height="1410" as="geometry" />
        </mxCell>
        <mxCell id="F1iLutC6E6IiqcUPJ3Px-47" value="三方厂商处理函数请求三方厂商" style="html=1;verticalAlign=bottom;endArrow=block;strokeColor=#457B9D;fillColor=#A8DADC;fontColor=#1D3557;fontFamily=Comic Sans MS;entryX=-0.48;entryY=0.141;entryDx=0;entryDy=0;entryPerimeter=0;labelBackgroundColor=#F1FAEE;" parent="1" target="F1iLutC6E6IiqcUPJ3Px-50" edge="1">
          <mxGeometry relative="1" as="geometry">
            <mxPoint x="1120" y="641" as="sourcePoint" />
            <mxPoint x="1542.5" y="640" as="targetPoint" />
          </mxGeometry>
        </mxCell>
        <mxCell id="F1iLutC6E6IiqcUPJ3Px-48" value="" style="html=1;points=[];perimeter=orthogonalPerimeter;rounded=0;sketch=0;strokeColor=#457B9D;fillColor=#A8DADC;fontColor=#1D3557;" parent="1" vertex="1">
          <mxGeometry x="1102.5" y="760" width="10" height="220" as="geometry" />
        </mxCell>
        <mxCell id="F1iLutC6E6IiqcUPJ3Px-49" value="&lt;span style=&quot;text-align: center&quot;&gt;getExtData&lt;/span&gt;" style="edgeStyle=orthogonalEdgeStyle;html=1;align=left;spacingLeft=2;endArrow=block;rounded=0;strokeColor=#457B9D;fillColor=#A8DADC;fontFamily=Comic Sans MS;fontColor=#1D3557;labelBackgroundColor=#F1FAEE;" parent="1" edge="1">
          <mxGeometry relative="1" as="geometry">
            <mxPoint x="1117.5" y="540.01" as="sourcePoint" />
            <Array as="points">
              <mxPoint x="1112.5" y="540.01" />
              <mxPoint x="1137.5" y="540.01" />
              <mxPoint x="1137.5" y="570.01" />
            </Array>
            <mxPoint x="1117.5" y="570" as="targetPoint" />
          </mxGeometry>
        </mxCell>
        <mxCell id="F1iLutC6E6IiqcUPJ3Px-50" value="" style="html=1;points=[];perimeter=orthogonalPerimeter;rounded=0;sketch=0;strokeColor=#457B9D;fillColor=#A8DADC;fontColor=#1D3557;" parent="1" vertex="1">
          <mxGeometry x="1557.5" y="630" width="10" height="80" as="geometry" />
        </mxCell>
        <mxCell id="F1iLutC6E6IiqcUPJ3Px-51" value="" style="html=1;points=[];perimeter=orthogonalPerimeter;rounded=0;sketch=0;strokeColor=#457B9D;fillColor=#A8DADC;fontColor=#1D3557;" parent="1" vertex="1">
          <mxGeometry x="1557.5" y="920" width="10" height="60" as="geometry" />
        </mxCell>
        <mxCell id="F1iLutC6E6IiqcUPJ3Px-52" value="" style="html=1;points=[];perimeter=orthogonalPerimeter;rounded=0;sketch=0;strokeColor=#457B9D;fillColor=#A8DADC;fontColor=#1D3557;" parent="1" vertex="1">
          <mxGeometry x="1327.5" y="810" width="10" height="50" as="geometry" />
        </mxCell>
        <mxCell id="F1iLutC6E6IiqcUPJ3Px-53" value="返回结果" style="html=1;verticalAlign=bottom;endArrow=open;dashed=1;endSize=8;strokeColor=#457B9D;fillColor=#A8DADC;fontColor=#1D3557;labelBackgroundColor=#F1FAEE;" parent="1" edge="1">
          <mxGeometry relative="1" as="geometry">
            <mxPoint x="1552.5" y="710" as="sourcePoint" />
            <mxPoint x="1112.5" y="710" as="targetPoint" />
          </mxGeometry>
        </mxCell>
        <mxCell id="F1iLutC6E6IiqcUPJ3Px-54" value="&lt;span style=&quot;text-align: center&quot;&gt;assemblyCall&lt;/span&gt;" style="edgeStyle=orthogonalEdgeStyle;html=1;align=left;spacingLeft=2;endArrow=block;rounded=0;strokeColor=#457B9D;fillColor=#A8DADC;fontFamily=Comic Sans MS;fontColor=#1D3557;labelBackgroundColor=#F1FAEE;" parent="1" edge="1">
          <mxGeometry relative="1" as="geometry">
            <mxPoint x="1117.5" y="770.01" as="sourcePoint" />
            <Array as="points">
              <mxPoint x="1112.5" y="770.01" />
              <mxPoint x="1137.5" y="770.01" />
              <mxPoint x="1137.5" y="800.01" />
            </Array>
            <mxPoint x="1117.5" y="800" as="targetPoint" />
          </mxGeometry>
        </mxCell>
        <mxCell id="F1iLutC6E6IiqcUPJ3Px-55" value="调相关Atom" style="verticalAlign=bottom;endArrow=block;strokeColor=#457B9D;fillColor=#A8DADC;fontColor=#1D3557;fontFamily=Comic Sans MS;html=1;labelBackgroundColor=#F1FAEE;" parent="1" edge="1">
          <mxGeometry width="80" relative="1" as="geometry">
            <mxPoint x="1117.5" y="820" as="sourcePoint" />
            <mxPoint x="1322.5" y="820" as="targetPoint" />
          </mxGeometry>
        </mxCell>
        <mxCell id="F1iLutC6E6IiqcUPJ3Px-56" value="" style="endArrow=none;startArrow=block;endFill=0;startFill=1;html=1;strokeColor=#457B9D;fillColor=#A8DADC;fontFamily=Comic Sans MS;fontColor=#1D3557;entryX=-0.319;entryY=0.86;entryDx=0;entryDy=0;entryPerimeter=0;labelBackgroundColor=#F1FAEE;" parent="1" target="F1iLutC6E6IiqcUPJ3Px-52" edge="1">
          <mxGeometry width="160" relative="1" as="geometry">
            <mxPoint x="1112.5" y="853" as="sourcePoint" />
            <mxPoint x="1272.5" y="910" as="targetPoint" />
          </mxGeometry>
        </mxCell>
        <mxCell id="F1iLutC6E6IiqcUPJ3Px-57" value="getExecAiData" style="edgeLabel;html=1;align=center;verticalAlign=middle;resizable=0;points=[];fontFamily=Comic Sans MS;fontColor=#1D3557;labelBackgroundColor=#F1FAEE;" parent="F1iLutC6E6IiqcUPJ3Px-56" vertex="1" connectable="0">
          <mxGeometry x="-0.1919" y="-2" relative="1" as="geometry">
            <mxPoint x="24.29" y="-12.08" as="offset" />
          </mxGeometry>
        </mxCell>
        <mxCell id="F1iLutC6E6IiqcUPJ3Px-58" value="&lt;span style=&quot;text-align: center&quot;&gt;getRuleConditionResult&lt;/span&gt;" style="edgeStyle=orthogonalEdgeStyle;html=1;align=left;spacingLeft=2;endArrow=block;rounded=0;strokeColor=#457B9D;fillColor=#A8DADC;fontFamily=Comic Sans MS;fontColor=#1D3557;labelBackgroundColor=#F1FAEE;" parent="1" edge="1">
          <mxGeometry relative="1" as="geometry">
            <mxPoint x="1805" y="1050.01" as="sourcePoint" />
            <Array as="points">
              <mxPoint x="1800" y="1050.01" />
              <mxPoint x="1825" y="1050.01" />
              <mxPoint x="1825" y="1080.01" />
            </Array>
            <mxPoint x="1805" y="1080" as="targetPoint" />
          </mxGeometry>
        </mxCell>
        <mxCell id="F1iLutC6E6IiqcUPJ3Px-59" value="三方厂商处理函数请求三方厂商" style="html=1;verticalAlign=bottom;endArrow=block;strokeColor=#457B9D;fillColor=#A8DADC;fontColor=#1D3557;fontFamily=Comic Sans MS;entryX=-0.48;entryY=0.141;entryDx=0;entryDy=0;entryPerimeter=0;labelBackgroundColor=#F1FAEE;" parent="1" edge="1">
          <mxGeometry relative="1" as="geometry">
            <mxPoint x="1112.5" y="930" as="sourcePoint" />
            <mxPoint x="1558.1999999999998" y="930" as="targetPoint" />
          </mxGeometry>
        </mxCell>
        <mxCell id="F1iLutC6E6IiqcUPJ3Px-60" value="返回结果" style="html=1;verticalAlign=bottom;endArrow=open;dashed=1;endSize=8;strokeColor=#457B9D;fillColor=#A8DADC;fontColor=#1D3557;labelBackgroundColor=#F1FAEE;" parent="1" edge="1">
          <mxGeometry relative="1" as="geometry">
            <mxPoint x="1552.5" y="970" as="sourcePoint" />
            <mxPoint x="1112.5" y="970" as="targetPoint" />
          </mxGeometry>
        </mxCell>
        <mxCell id="F1iLutC6E6IiqcUPJ3Px-66" value="ObjectEventManager中的实例" style="html=1;verticalAlign=bottom;endArrow=block;strokeColor=#457B9D;fillColor=#A8DADC;fontFamily=Comic Sans MS;fontColor=#1D3557;labelBackgroundColor=#F1FAEE;" parent="1" edge="1">
          <mxGeometry width="80" relative="1" as="geometry">
            <mxPoint x="275" y="230" as="sourcePoint" />
            <mxPoint x="500" y="230" as="targetPoint" />
          </mxGeometry>
        </mxCell>
        <mxCell id="F1iLutC6E6IiqcUPJ3Px-67" value="onData" style="edgeStyle=orthogonalEdgeStyle;html=1;align=left;spacingLeft=2;endArrow=block;rounded=0;entryX=1;entryY=0;strokeColor=#457B9D;fillColor=#A8DADC;fontFamily=Comic Sans MS;fontColor=#1D3557;labelBackgroundColor=#F1FAEE;" parent="1" edge="1">
          <mxGeometry relative="1" as="geometry">
            <mxPoint x="520" y="240" as="sourcePoint" />
            <Array as="points">
              <mxPoint x="545" y="240" />
            </Array>
            <mxPoint x="525" y="260" as="targetPoint" />
          </mxGeometry>
        </mxCell>
        <mxCell id="F1iLutC6E6IiqcUPJ3Px-68" value="onEvent" style="edgeStyle=orthogonalEdgeStyle;html=1;align=left;spacingLeft=2;endArrow=block;rounded=0;entryX=1;entryY=0;strokeColor=#457B9D;fillColor=#A8DADC;fontFamily=Comic Sans MS;fontColor=#1D3557;labelBackgroundColor=#F1FAEE;" parent="1" edge="1">
          <mxGeometry relative="1" as="geometry">
            <mxPoint x="720" y="280" as="sourcePoint" />
            <Array as="points">
              <mxPoint x="745" y="280" />
            </Array>
            <mxPoint x="725" y="300" as="targetPoint" />
          </mxGeometry>
        </mxCell>
        <mxCell id="F1iLutC6E6IiqcUPJ3Px-69" value="doThreadHandler" style="edgeStyle=orthogonalEdgeStyle;html=1;align=left;spacingLeft=2;endArrow=block;rounded=0;entryX=1;entryY=0;strokeColor=#457B9D;fillColor=#A8DADC;fontFamily=Comic Sans MS;fontColor=#1D3557;labelBackgroundColor=#F1FAEE;" parent="1" edge="1">
          <mxGeometry relative="1" as="geometry">
            <mxPoint x="720" y="340" as="sourcePoint" />
            <Array as="points">
              <mxPoint x="745" y="340" />
            </Array>
            <mxPoint x="725" y="360" as="targetPoint" />
          </mxGeometry>
        </mxCell>
        <mxCell id="F1iLutC6E6IiqcUPJ3Px-84" value="发布消息" style="html=1;verticalAlign=bottom;endArrow=block;strokeColor=#457B9D;fillColor=#A8DADC;fontFamily=Comic Sans MS;fontColor=#1D3557;labelBackgroundColor=#F1FAEE;" parent="1" edge="1">
          <mxGeometry width="80" relative="1" as="geometry">
            <mxPoint x="520" y="280" as="sourcePoint" />
            <mxPoint x="700" y="280" as="targetPoint" />
          </mxGeometry>
        </mxCell>
        <mxCell id="F1iLutC6E6IiqcUPJ3Px-85" value="记录详情日志，线程池执行线程" style="html=1;verticalAlign=bottom;endArrow=block;strokeColor=#457B9D;fillColor=#A8DADC;fontFamily=Comic Sans MS;fontColor=#1D3557;labelBackgroundColor=#F1FAEE;" parent="1" edge="1">
          <mxGeometry width="80" relative="1" as="geometry">
            <mxPoint x="720" y="390" as="sourcePoint" />
            <mxPoint x="900" y="390" as="targetPoint" />
          </mxGeometry>
        </mxCell>
        <mxCell id="F1iLutC6E6IiqcUPJ3Px-87" value="call" style="edgeStyle=orthogonalEdgeStyle;html=1;align=left;spacingLeft=2;endArrow=block;rounded=0;entryX=1;entryY=0;strokeColor=#457B9D;fillColor=#A8DADC;fontFamily=Comic Sans MS;fontColor=#1D3557;labelBackgroundColor=#F1FAEE;" parent="1" edge="1">
          <mxGeometry relative="1" as="geometry">
            <mxPoint x="920" y="400" as="sourcePoint" />
            <Array as="points">
              <mxPoint x="945" y="400" />
              <mxPoint x="945" y="420" />
            </Array>
            <mxPoint x="925" y="420" as="targetPoint" />
          </mxGeometry>
        </mxCell>
        <mxCell id="F1iLutC6E6IiqcUPJ3Px-88" value="getRuleInfoExec" style="html=1;verticalAlign=bottom;endArrow=block;strokeColor=#457B9D;fillColor=#A8DADC;fontFamily=Comic Sans MS;fontColor=#1D3557;labelBackgroundColor=#F1FAEE;" parent="1" edge="1">
          <mxGeometry width="80" relative="1" as="geometry">
            <mxPoint x="920" y="450" as="sourcePoint" />
            <mxPoint x="1100" y="450" as="targetPoint" />
          </mxGeometry>
        </mxCell>
        <mxCell id="F1iLutC6E6IiqcUPJ3Px-89" value="&lt;span style=&quot;text-align: center&quot;&gt;getExecAiRuleData&lt;/span&gt;" style="edgeStyle=orthogonalEdgeStyle;html=1;align=left;spacingLeft=2;endArrow=block;rounded=0;strokeColor=#457B9D;fillColor=#A8DADC;fontFamily=Comic Sans MS;fontColor=#1D3557;labelBackgroundColor=#F1FAEE;" parent="1" edge="1">
          <mxGeometry relative="1" as="geometry">
            <mxPoint x="1117.5" y="480.01" as="sourcePoint" />
            <Array as="points">
              <mxPoint x="1112.5" y="480.01" />
              <mxPoint x="1137.5" y="480.01" />
              <mxPoint x="1137.5" y="510.01" />
            </Array>
            <mxPoint x="1117.5" y="510" as="targetPoint" />
          </mxGeometry>
        </mxCell>
        <mxCell id="F1iLutC6E6IiqcUPJ3Px-95" value="" style="endArrow=none;html=1;strokeColor=#457B9D;fillColor=#A8DADC;fontFamily=Comic Sans MS;fontColor=#1D3557;dashed=1;labelBackgroundColor=#F1FAEE;" parent="1" edge="1">
          <mxGeometry width="50" height="50" relative="1" as="geometry">
            <mxPoint x="1610" y="740" as="sourcePoint" />
            <mxPoint x="941" y="740" as="targetPoint" />
          </mxGeometry>
        </mxCell>
        <mxCell id="F1iLutC6E6IiqcUPJ3Px-96" value="厂商编号不是S9999" style="text;resizable=0;autosize=1;align=center;verticalAlign=middle;points=[];fillColor=none;strokeColor=none;rounded=0;sketch=0;fontFamily=Comic Sans MS;fontColor=#1D3557;" parent="1" vertex="1">
          <mxGeometry x="940" y="650" width="130" height="20" as="geometry" />
        </mxCell>
        <mxCell id="F1iLutC6E6IiqcUPJ3Px-97" value="厂商编号是S9999" style="text;resizable=0;autosize=1;align=center;verticalAlign=middle;points=[];fillColor=none;strokeColor=none;rounded=0;sketch=0;fontFamily=Comic Sans MS;fontColor=#1D3557;" parent="1" vertex="1">
          <mxGeometry x="950" y="770" width="110" height="20" as="geometry" />
        </mxCell>
        <mxCell id="F1iLutC6E6IiqcUPJ3Px-98" value="" style="html=1;points=[];perimeter=orthogonalPerimeter;rounded=0;sketch=0;strokeColor=#457B9D;fillColor=#A8DADC;fontColor=#1D3557;" parent="1" vertex="1">
          <mxGeometry x="1102.5" y="630" width="10" height="90" as="geometry" />
        </mxCell>
        <mxCell id="F1iLutC6E6IiqcUPJ3Px-99" value="" style="html=1;points=[];perimeter=orthogonalPerimeter;rounded=0;sketch=0;strokeColor=#457B9D;fillColor=#A8DADC;fontColor=#1D3557;" parent="1" vertex="1">
          <mxGeometry x="1102.5" y="1030" width="10" height="120" as="geometry" />
        </mxCell>
        <mxCell id="F1iLutC6E6IiqcUPJ3Px-101" value="IntelligentUtil" style="shape=umlLifeline;perimeter=lifelinePerimeter;whiteSpace=wrap;html=1;container=1;collapsible=0;recursiveResize=0;outlineConnect=0;strokeColor=#457B9D;fillColor=#A8DADC;fontFamily=Comic Sans MS;fontColor=#1D3557;" parent="1" vertex="1">
          <mxGeometry x="1720" y="70" width="140" height="1360" as="geometry" />
        </mxCell>
        <mxCell id="F1iLutC6E6IiqcUPJ3Px-102" value="" style="html=1;points=[];perimeter=orthogonalPerimeter;rounded=0;sketch=0;strokeColor=#457B9D;fillColor=#A8DADC;fontColor=#1D3557;" parent="F1iLutC6E6IiqcUPJ3Px-101" vertex="1">
          <mxGeometry x="65" y="970" width="10" height="70" as="geometry" />
        </mxCell>
        <mxCell id="F1iLutC6E6IiqcUPJ3Px-103" value="validateLogicCondition" style="html=1;verticalAlign=bottom;endArrow=block;strokeColor=#457B9D;fillColor=#A8DADC;fontColor=#1D3557;" parent="1" edge="1">
          <mxGeometry width="80" relative="1" as="geometry">
            <mxPoint x="1112.5" y="1050" as="sourcePoint" />
            <mxPoint x="1780" y="1050" as="targetPoint" />
          </mxGeometry>
        </mxCell>
        <mxCell id="F1iLutC6E6IiqcUPJ3Px-104" value="&lt;span style=&quot;text-align: center&quot;&gt;getExtData&lt;/span&gt;" style="edgeStyle=orthogonalEdgeStyle;html=1;align=left;spacingLeft=2;endArrow=block;rounded=0;strokeColor=#457B9D;fillColor=#A8DADC;fontFamily=Comic Sans MS;fontColor=#1D3557;labelBackgroundColor=#F1FAEE;" parent="1" edge="1">
          <mxGeometry relative="1" as="geometry">
            <mxPoint x="1127.5000000000002" y="880.01" as="sourcePoint" />
            <Array as="points">
              <mxPoint x="1122.5" y="880.01" />
              <mxPoint x="1147.5" y="880.01" />
              <mxPoint x="1147.5" y="910.01" />
            </Array>
            <mxPoint x="1127.5000000000002" y="910" as="targetPoint" />
          </mxGeometry>
        </mxCell>
        <mxCell id="vzTr1F74ae5glKlfCKuG-1" value="返回结果" style="html=1;verticalAlign=bottom;endArrow=open;dashed=1;endSize=8;strokeColor=#457B9D;fillColor=#A8DADC;fontColor=#1D3557;labelBackgroundColor=#F1FAEE;" edge="1" parent="1">
          <mxGeometry relative="1" as="geometry">
            <mxPoint x="900" y="1149.5" as="sourcePoint" />
            <mxPoint x="720" y="1150" as="targetPoint" />
          </mxGeometry>
        </mxCell>
        <mxCell id="vzTr1F74ae5glKlfCKuG-4" value="returnResult" style="edgeStyle=orthogonalEdgeStyle;html=1;align=left;spacingLeft=2;endArrow=block;rounded=0;entryX=1;entryY=0;strokeColor=#457B9D;fillColor=#A8DADC;fontFamily=Comic Sans MS;fontColor=#1D3557;labelBackgroundColor=#F1FAEE;" edge="1" parent="1">
          <mxGeometry relative="1" as="geometry">
            <mxPoint x="280" y="449.9999999999999" as="sourcePoint" />
            <Array as="points">
              <mxPoint x="305" y="450" />
            </Array>
            <mxPoint x="285" y="469.9999999999999" as="targetPoint" />
          </mxGeometry>
        </mxCell>
      </root>
    </mxGraphModel>
  </diagram>
</mxfile>
